# xmcd CD database file
#
# Track frame offsets:
#	150
#	14068
#	29533
#	42579
#	56646
#	67967
#	82433
#	95986
#	106695
#	120699
#	135791
#	150915
#	164533
#	179172
#	194200
#	216066
#	229374
#	253073
#	270445
#	284435
#
# Disc length: 3982 seconds
#
# Revision: 0
# Processed by: cddbd v1.5.2PL0 Copyright (c) Steve Scherf et al.
# Submitted via: CDex 1.51
#
DISCID=340f8c14
DTITLE=Louis Armstrong - La Vie en Rose - C'Est Si Bon
DYEAR=2001
DGENRE=Jazz
TTITLE0=C'Est Si Bon
TTITLE1=La Vie en Rose
TTITLE2=Blueberry Hill
TTITLE3=That Lucky Old Sun (Just Rolls Around Heaven All Day)
TTITLE4=Shadrack
TTITLE5=Nobody Knows The Trouble I've Seen
TTITLE6=Flat Foot Floogie
TTITLE7=Marie
TTITLE8=You Rascal You
TTITLE9=Life Is So Peculiar
TTITLE10=The Frim Fram Sauce
TTITLE11=You Won't Be Satisfied (Until You Break My Heart)
TTITLE12=You Can't Lose a Broken Heart
TTITLE13=My Sweet Hunk O' Trash
TTITLE14=That's My Desire
TTITLE15=No Variety Blues
TTITLE16=Rockin' Chair
TTITLE17=Pennies From Heaven
TTITLE18=Dream A Little Dream Of Me
TTITLE19=Can Anyone Explain? (No, No, No!)
EXTD=YEAR: 2001
EXTT0=
EXTT1=
EXTT2=
EXTT3=
EXTT4=
EXTT5=
EXTT6=
EXTT7=
EXTT8=
EXTT9=
EXTT10=
EXTT11=
EXTT12=
EXTT13=
EXTT14=
EXTT15=
EXTT16=
EXTT17=
EXTT18=
EXTT19=
PLAYORDER=
